<svg xmlns="http://www.w3.org/2000/svg" xmlns:xlink="http://www.w3.org/1999/xlink" width="500" zoomAndPan="magnify" viewBox="0 0 375 374.999991" height="500" preserveAspectRatio="xMidYMid meet" version="1.2"><defs><clipPath id="4431559130"><path d="M 23.652344 161 L 65 161 L 65 244 L 23.652344 244 Z M 23.652344 161 "/></clipPath><clipPath id="3ac9a9db74"><path d="M 310 161 L 351.402344 161 L 351.402344 244 L 310 244 Z M 310 161 "/></clipPath><clipPath id="ede6ed2795"><path d="M 172 54.375 L 203 54.375 L 203 86 L 172 86 Z M 172 54.375 "/></clipPath><clipPath id="0be9c44e77"><path d="M 167 279 L 219 279 L 219 320.625 L 167 320.625 Z M 167 279 "/></clipPath></defs><g id="304b8f19f3"><path style=" stroke:none;fill-rule:nonzero;fill:#874ed9;fill-opacity:1;" d="M 233.578125 202.855469 C 227.925781 202.855469 223.339844 198.269531 223.339844 192.613281 C 223.339844 186.960938 227.925781 182.375 233.578125 182.375 C 239.234375 182.375 243.820312 186.960938 243.820312 192.613281 C 243.820312 198.269531 239.234375 202.855469 233.578125 202.855469 Z M 187.5 236.078125 C 173.359375 236.078125 161.898438 226.910156 161.898438 215.597656 L 213.097656 215.597656 C 213.097656 226.910156 201.640625 236.078125 187.5 236.078125 Z M 141.421875 202.855469 C 135.765625 202.855469 131.179688 198.269531 131.179688 192.613281 C 131.179688 186.960938 135.765625 182.375 141.421875 182.375 C 147.074219 182.375 151.660156 186.960938 151.660156 192.613281 C 151.660156 198.269531 147.074219 202.855469 141.421875 202.855469 Z M 228.460938 141.414062 L 146.539062 141.414062 C 129.574219 141.414062 114.214844 148.292969 103.097656 159.410156 C 91.976562 170.527344 85.101562 185.890625 85.101562 202.855469 C 85.101562 236.789062 112.605469 264.292969 146.539062 264.292969 L 228.460938 264.292969 C 245.425781 264.292969 260.785156 257.417969 271.902344 246.296875 C 283.023438 235.179688 289.898438 219.820312 289.898438 202.855469 C 289.898438 168.921875 262.394531 141.414062 228.460938 141.414062 "/><path style=" stroke:none;fill-rule:nonzero;fill:#874ed9;fill-opacity:1;" d="M 187.5 305.253906 L 156.78125 305.253906 C 142.957031 305.253906 129.546875 302.546875 116.921875 297.203125 C 104.726562 292.046875 93.773438 284.664062 84.371094 275.261719 C 74.96875 265.859375 67.585938 254.910156 62.429688 242.714844 C 57.089844 230.085938 54.378906 216.675781 54.378906 202.855469 C 54.378906 189.03125 57.089844 175.621094 62.429688 162.996094 C 67.585938 150.800781 74.96875 139.847656 84.371094 130.445312 C 93.773438 121.042969 104.726562 113.660156 116.921875 108.503906 C 129.546875 103.160156 142.957031 100.453125 156.78125 100.453125 L 218.21875 100.453125 C 232.042969 100.453125 245.453125 103.160156 258.078125 108.503906 C 270.273438 113.660156 281.222656 121.042969 290.625 130.445312 C 300.027344 139.847656 307.410156 150.800781 312.570312 162.996094 C 317.910156 175.621094 320.617188 189.03125 320.617188 202.855469 L 310.378906 202.855469 C 310.378906 152.035156 269.035156 110.695312 218.21875 110.695312 L 156.78125 110.695312 C 105.960938 110.695312 64.621094 152.035156 64.621094 202.855469 C 64.621094 253.671875 105.960938 295.011719 156.78125 295.011719 L 187.5 295.011719 L 187.5 305.253906 "/><g clip-rule="nonzero" clip-path="url(#4431559130)"><path style=" stroke:none;fill-rule:nonzero;fill:#874ed9;fill-opacity:1;" d="M 64.621094 243.8125 C 42 243.8125 23.660156 225.476562 23.660156 202.855469 C 23.660156 180.234375 42 161.894531 64.621094 161.894531 L 64.621094 243.8125 "/></g><g clip-rule="nonzero" clip-path="url(#3ac9a9db74)"><path style=" stroke:none;fill-rule:nonzero;fill:#874ed9;fill-opacity:1;" d="M 310.378906 243.8125 C 333 243.8125 351.339844 225.476562 351.339844 202.855469 C 351.339844 180.234375 333 161.894531 310.378906 161.894531 L 310.378906 243.8125 "/></g><path style=" stroke:none;fill-rule:nonzero;fill:#874ed9;fill-opacity:1;" d="M 213.097656 146.535156 C 213.097656 157.84375 201.636719 167.015625 187.5 167.015625 C 173.363281 167.015625 161.898438 157.84375 161.898438 146.535156 C 161.898438 135.222656 173.363281 126.054688 187.5 126.054688 C 201.636719 126.054688 213.097656 135.222656 213.097656 146.535156 "/><g clip-rule="nonzero" clip-path="url(#ede6ed2795)"><path style=" stroke:none;fill-rule:nonzero;fill:#874ed9;fill-opacity:1;" d="M 202.859375 69.734375 C 202.859375 78.21875 195.984375 85.09375 187.5 85.09375 C 179.015625 85.09375 172.140625 78.21875 172.140625 69.734375 C 172.140625 61.25 179.015625 54.375 187.5 54.375 C 195.984375 54.375 202.859375 61.25 202.859375 69.734375 "/></g><g clip-rule="nonzero" clip-path="url(#0be9c44e77)"><path style=" stroke:none;fill-rule:nonzero;fill:#874ed9;fill-opacity:1;" d="M 218.21875 300.132812 C 218.21875 311.445312 206.757812 320.613281 192.621094 320.613281 C 178.480469 320.613281 167.019531 311.445312 167.019531 300.132812 C 167.019531 288.824219 178.480469 279.652344 192.621094 279.652344 C 206.757812 279.652344 218.21875 288.824219 218.21875 300.132812 "/></g><path style=" stroke:none;fill-rule:nonzero;fill:#874ed9;fill-opacity:1;" d="M 192.621094 162.113281 L 182.378906 162.113281 L 182.378906 69.734375 L 192.621094 69.734375 L 192.621094 162.113281 "/></g></svg>