<svg xmlns="http://www.w3.org/2000/svg" xmlns:xlink="http://www.w3.org/1999/xlink" width="1366" zoomAndPan="magnify" viewBox="0 0 1024.5 576" height="768" preserveAspectRatio="xMidYMid meet" version="1.0"><defs><g/><clipPath id="a764992468"><path d="M 522 16.335938 L 760 16.335938 L 760 209 L 522 209 Z M 522 16.335938 " clip-rule="nonzero"/></clipPath><clipPath id="8a0714bb67"><path d="M 268.355469 225 L 309 225 L 309 317 L 268.355469 317 Z M 268.355469 225 " clip-rule="nonzero"/></clipPath><clipPath id="7d13566836"><path d="M 443 403 L 573.914062 403 L 573.914062 440.136719 L 443 440.136719 Z M 443 403 " clip-rule="nonzero"/></clipPath></defs><path fill="#292a35" d="M 508.585938 107.546875 C 487.171875 107.546875 468.742188 120.121094 459.945312 138.226562 L 557.058594 138.226562 C 548.261719 120.121094 529.835938 107.546875 508.585938 107.546875 " fill-opacity="1" fill-rule="nonzero"/><path fill="#292a35" d="M 709.617188 175.949219 L 709.617188 220.21875 L 721.738281 220.21875 L 721.738281 175.949219 C 719.742188 176.625 717.753906 176.957031 715.597656 176.957031 C 713.433594 176.957031 711.445312 176.625 709.617188 175.949219 " fill-opacity="1" fill-rule="nonzero"/><path fill="#292a35" d="M 583.953125 249.058594 C 596.070312 249.058594 605.699219 258.78125 605.699219 270.851562 C 605.699219 283.09375 596.070312 292.816406 583.953125 292.816406 C 572 292.816406 562.371094 283.09375 562.371094 270.851562 C 562.371094 258.78125 572 249.058594 583.953125 249.058594 Z M 541.953125 270.851562 C 541.953125 294.496094 560.707031 313.4375 583.953125 313.4375 C 607.355469 313.4375 626.117188 294.496094 626.117188 270.851562 C 626.117188 247.378906 607.355469 228.429688 583.953125 228.429688 C 560.707031 228.429688 541.953125 247.378906 541.953125 270.851562 " fill-opacity="1" fill-rule="nonzero"/><g clip-path="url(#a764992468)"><path fill="#292a35" d="M 575.980469 123.640625 L 611.675781 123.640625 C 608.519531 154.488281 596.070312 181.992188 581.460938 208.648438 C 604.535156 194.0625 635.746094 172.429688 657.160156 123.640625 L 706.296875 123.640625 C 735.515625 123.640625 759.417969 99.496094 759.417969 69.988281 C 759.417969 40.476562 735.515625 16.332031 706.296875 16.332031 L 575.980469 16.332031 C 546.765625 16.332031 522.859375 40.476562 522.859375 69.988281 C 522.859375 99.496094 546.765625 123.640625 575.980469 123.640625 " fill-opacity="1" fill-rule="nonzero"/></g><path fill="#292a35" d="M 735.015625 152.308594 C 735.015625 141.582031 726.21875 132.859375 715.597656 132.859375 C 704.96875 132.859375 696.335938 141.582031 696.335938 152.308594 C 696.335938 163.210938 704.96875 171.925781 715.597656 171.925781 C 726.21875 171.925781 735.015625 163.210938 735.015625 152.308594 " fill-opacity="1" fill-rule="nonzero"/><g clip-path="url(#8a0714bb67)"><path fill="#292a35" d="M 308.714844 225.246094 L 287.464844 225.246094 C 276.839844 225.246094 268.375 233.964844 268.375 244.53125 L 268.375 297.34375 C 268.375 307.90625 276.839844 316.628906 287.464844 316.628906 L 308.714844 316.628906 C 303.238281 302.375 300.25 286.945312 300.25 270.851562 C 300.25 254.921875 303.238281 239.496094 308.714844 225.246094 " fill-opacity="1" fill-rule="nonzero"/></g><path fill="#292a35" d="M 301.410156 171.925781 C 312.035156 171.925781 320.667969 163.210938 320.667969 152.308594 C 320.667969 141.582031 312.035156 132.859375 301.410156 132.859375 C 290.785156 132.859375 282.15625 141.582031 282.15625 152.308594 C 282.15625 163.210938 290.785156 171.925781 301.410156 171.925781 " fill-opacity="1" fill-rule="nonzero"/><path fill="#292a35" d="M 726.550781 225.246094 L 708.289062 225.246094 C 713.765625 239.496094 716.753906 254.921875 716.753906 270.851562 C 716.753906 286.945312 713.765625 302.375 708.289062 316.628906 L 726.550781 316.628906 C 737.011719 316.628906 745.636719 307.90625 745.636719 297.34375 L 745.636719 244.53125 C 745.636719 233.964844 737.011719 225.246094 726.550781 225.246094 " fill-opacity="1" fill-rule="nonzero"/><g clip-path="url(#7d13566836)"><path fill="#292a35" d="M 443.34375 440.53125 L 573.65625 440.53125 L 573.65625 403.648438 L 443.34375 403.648438 L 443.34375 440.53125 " fill-opacity="1" fill-rule="nonzero"/></g><path fill="#292a35" d="M 644.042969 158.011719 C 635.910156 169.914062 626.617188 180.144531 615.824219 189.703125 C 648.195312 202.109375 671.4375 233.964844 671.4375 270.851562 C 671.4375 318.804688 632.757812 357.871094 585.277344 357.871094 L 431.722656 357.871094 C 384.246094 357.871094 345.5625 318.804688 345.5625 270.851562 C 345.5625 223.070312 384.246094 184 431.722656 184 L 585.277344 184 C 586.441406 184 587.4375 184 588.4375 184 C 594.40625 171.257812 599.554688 158.179688 602.878906 144.433594 C 597.230469 143.59375 591.257812 143.257812 585.277344 143.257812 L 431.722656 143.257812 C 362.167969 143.257812 305.226562 200.601562 305.226562 270.851562 C 305.226562 341.101562 362.167969 398.617188 431.722656 398.617188 L 585.277344 398.617188 C 654.832031 398.617188 711.777344 341.101562 711.777344 270.851562 C 711.777344 222.0625 684.21875 179.476562 644.042969 158.011719 " fill-opacity="1" fill-rule="nonzero"/><path fill="#292a35" d="M 295.433594 175.949219 L 295.433594 220.21875 L 307.382812 220.21875 L 307.382812 175.949219 C 305.558594 176.625 303.566406 176.957031 301.410156 176.957031 C 299.25 176.957031 297.257812 176.625 295.433594 175.949219 " fill-opacity="1" fill-rule="nonzero"/><path fill="#292a35" d="M 454.632812 270.851562 C 454.632812 283.09375 445.003906 292.816406 433.054688 292.816406 C 420.933594 292.816406 411.304688 283.09375 411.304688 270.851562 C 411.304688 258.78125 420.933594 249.058594 433.054688 249.058594 C 445.003906 249.058594 454.632812 258.78125 454.632812 270.851562 Z M 390.886719 270.851562 C 390.886719 294.496094 409.644531 313.4375 433.054688 313.4375 C 456.292969 313.4375 475.21875 294.496094 475.21875 270.851562 C 475.21875 247.378906 456.292969 228.429688 433.054688 228.429688 C 409.644531 228.429688 390.886719 247.378906 390.886719 270.851562 " fill-opacity="1" fill-rule="nonzero"/><g fill="#292a35" fill-opacity="1"><g transform="translate(192.160352, 536.338168)"><g><path d="M 8.6875 0 L 8.6875 -80.375 L 30.515625 -80.375 L 30.515625 0 Z M 8.6875 0 "/></g></g></g><g fill="#292a35" fill-opacity="1"><g transform="translate(231.35989, 536.338168)"><g><path d="M 85.21875 0 L 56.734375 0 L 27.375 -56.625 L 26.890625 -56.625 C 27.578125 -47.71875 27.921875 -40.921875 27.921875 -36.234375 L 27.921875 0 L 8.6875 0 L 8.6875 -80.375 L 37.0625 -80.375 L 66.296875 -24.515625 L 66.625 -24.515625 C 66.113281 -32.617188 65.859375 -39.125 65.859375 -44.03125 L 65.859375 -80.375 L 85.21875 -80.375 Z M 85.21875 0 "/></g></g></g><g fill="#292a35" fill-opacity="1"><g transform="translate(325.262853, 536.338168)"><g><path d="M 40.953125 -47.0625 L 75.65625 -47.0625 L 75.65625 -3.734375 C 66.226562 -0.515625 55.875 1.09375 44.59375 1.09375 C 32.195312 1.09375 22.617188 -2.492188 15.859375 -9.671875 C 9.097656 -16.859375 5.71875 -27.101562 5.71875 -40.40625 C 5.71875 -53.382812 9.414062 -63.484375 16.8125 -70.703125 C 24.21875 -77.921875 34.59375 -81.53125 47.9375 -81.53125 C 53 -81.53125 57.773438 -81.050781 62.265625 -80.09375 C 66.753906 -79.144531 70.664062 -77.9375 74 -76.46875 L 67.125 -59.4375 C 61.332031 -62.289062 54.972656 -63.71875 48.046875 -63.71875 C 41.710938 -63.71875 36.8125 -61.65625 33.34375 -57.53125 C 29.882812 -53.40625 28.15625 -47.515625 28.15625 -39.859375 C 28.15625 -32.347656 29.71875 -26.617188 32.84375 -22.671875 C 35.976562 -18.734375 40.5 -16.765625 46.40625 -16.765625 C 49.625 -16.765625 52.59375 -17.078125 55.3125 -17.703125 L 55.3125 -30.296875 L 40.953125 -30.296875 Z M 40.953125 -47.0625 "/></g></g></g><g fill="#292a35" fill-opacity="1"><g transform="translate(408.609979, 536.338168)"><g><path d="M 56.40625 0 L 8.6875 0 L 8.6875 -80.375 L 56.40625 -80.375 L 56.40625 -62.953125 L 30.40625 -62.953125 L 30.40625 -50.296875 L 54.484375 -50.296875 L 54.484375 -32.875 L 30.40625 -32.875 L 30.40625 -17.703125 L 56.40625 -17.703125 Z M 56.40625 0 "/></g></g></g><g fill="#292a35" fill-opacity="1"><g transform="translate(470.405606, 536.338168)"><g><path d="M 85.21875 0 L 56.734375 0 L 27.375 -56.625 L 26.890625 -56.625 C 27.578125 -47.71875 27.921875 -40.921875 27.921875 -36.234375 L 27.921875 0 L 8.6875 0 L 8.6875 -80.375 L 37.0625 -80.375 L 66.296875 -24.515625 L 66.625 -24.515625 C 66.113281 -32.617188 65.859375 -39.125 65.859375 -44.03125 L 65.859375 -80.375 L 85.21875 -80.375 Z M 85.21875 0 "/></g></g></g><g fill="#292a35" fill-opacity="1"><g transform="translate(564.308569, 536.338168)"><g><path d="M 8.6875 0 L 8.6875 -80.375 L 30.515625 -80.375 L 30.515625 0 Z M 8.6875 0 "/></g></g></g><g fill="#292a35" fill-opacity="1"><g transform="translate(603.508107, 536.338168)"><g><path d="M 8.6875 -80.375 L 36.71875 -80.375 C 47.644531 -80.375 55.753906 -78.75 61.046875 -75.5 C 66.347656 -72.257812 69 -67.210938 69 -60.359375 C 69 -55.859375 67.84375 -52.007812 65.53125 -48.8125 C 63.21875 -45.625 60.175781 -43.570312 56.40625 -42.65625 L 56.40625 -42.109375 C 61.394531 -40.796875 65.003906 -38.597656 67.234375 -35.515625 C 69.472656 -32.429688 70.59375 -28.4375 70.59375 -23.53125 C 70.59375 -16.238281 67.851562 -10.492188 62.375 -6.296875 C 56.894531 -2.097656 49.425781 0 39.96875 0 L 8.6875 0 Z M 30.40625 -49.53125 L 36.9375 -49.53125 C 40.0625 -49.53125 42.472656 -50.171875 44.171875 -51.453125 C 45.878906 -52.742188 46.734375 -54.648438 46.734375 -57.171875 C 46.734375 -61.679688 43.320312 -63.9375 36.5 -63.9375 L 30.40625 -63.9375 Z M 30.40625 -33.640625 L 30.40625 -16.765625 L 38.046875 -16.765625 C 44.828125 -16.765625 48.21875 -19.625 48.21875 -25.34375 C 48.21875 -28.019531 47.304688 -30.070312 45.484375 -31.5 C 43.671875 -32.925781 41.046875 -33.640625 37.609375 -33.640625 Z M 30.40625 -33.640625 "/></g></g></g><g fill="#292a35" fill-opacity="1"><g transform="translate(679.378182, 536.338168)"><g><path d="M 83.890625 -40.296875 C 83.890625 -26.773438 80.570312 -16.492188 73.9375 -9.453125 C 67.3125 -2.421875 57.601562 1.09375 44.8125 1.09375 C 32.195312 1.09375 22.523438 -2.441406 15.796875 -9.515625 C 9.078125 -16.585938 5.71875 -26.882812 5.71875 -40.40625 C 5.71875 -53.78125 9.0625 -63.992188 15.75 -71.046875 C 22.4375 -78.109375 32.160156 -81.640625 44.921875 -81.640625 C 57.710938 -81.640625 67.40625 -78.140625 74 -71.140625 C 80.59375 -64.140625 83.890625 -53.859375 83.890625 -40.296875 Z M 28.59375 -40.296875 C 28.59375 -24.753906 34 -16.984375 44.8125 -16.984375 C 50.300781 -16.984375 54.375 -18.867188 57.03125 -22.640625 C 59.695312 -26.421875 61.03125 -32.304688 61.03125 -40.296875 C 61.03125 -48.328125 59.679688 -54.253906 56.984375 -58.078125 C 54.285156 -61.910156 50.265625 -63.828125 44.921875 -63.828125 C 34.035156 -63.828125 28.59375 -55.984375 28.59375 -40.296875 Z M 28.59375 -40.296875 "/></g></g></g><g fill="#292a35" fill-opacity="1"><g transform="translate(769.102793, 536.338168)"><g><path d="M 44.140625 0 L 22.4375 0 L 22.4375 -62.625 L 2.796875 -62.625 L 2.796875 -80.375 L 63.71875 -80.375 L 63.71875 -62.625 L 44.140625 -62.625 Z M 44.140625 0 "/></g></g></g><g fill="#737373" fill-opacity="1"><g transform="translate(577.422948, 59.811127)"><g><path d="M 18.015625 0 L 12.9375 0 L 12.9375 -7.609375 L 7.078125 -7.609375 L 7.078125 0 L 2.015625 0 L 2.015625 -18.65625 L 7.078125 -18.65625 L 7.078125 -11.75 L 12.9375 -11.75 L 12.9375 -18.65625 L 18.015625 -18.65625 Z M 18.015625 0 "/></g></g></g><g fill="#737373" fill-opacity="1"><g transform="translate(597.444605, 59.811127)"><g><path d="M 19.484375 -9.359375 C 19.484375 -6.210938 18.710938 -3.820312 17.171875 -2.1875 C 15.628906 -0.5625 13.375 0.25 10.40625 0.25 C 7.476562 0.25 5.234375 -0.566406 3.671875 -2.203125 C 2.109375 -3.847656 1.328125 -6.238281 1.328125 -9.375 C 1.328125 -12.488281 2.101562 -14.863281 3.65625 -16.5 C 5.207031 -18.132812 7.460938 -18.953125 10.421875 -18.953125 C 13.390625 -18.953125 15.640625 -18.140625 17.171875 -16.515625 C 18.710938 -14.890625 19.484375 -12.503906 19.484375 -9.359375 Z M 6.640625 -9.359375 C 6.640625 -5.742188 7.894531 -3.9375 10.40625 -3.9375 C 11.675781 -3.9375 12.617188 -4.375 13.234375 -5.25 C 13.859375 -6.132812 14.171875 -7.503906 14.171875 -9.359375 C 14.171875 -11.222656 13.859375 -12.597656 13.234375 -13.484375 C 12.609375 -14.367188 11.671875 -14.8125 10.421875 -14.8125 C 7.898438 -14.8125 6.640625 -12.992188 6.640625 -9.359375 Z M 6.640625 -9.359375 "/></g></g></g><g fill="#737373" fill-opacity="1"><g transform="translate(618.270179, 59.811127)"><g><path d="M 22.171875 0 L 16.203125 0 L 14.421875 -8.125 C 14.335938 -8.46875 14.203125 -9.144531 14.015625 -10.15625 C 13.835938 -11.164062 13.707031 -12.015625 13.625 -12.703125 C 13.550781 -12.148438 13.4375 -11.460938 13.28125 -10.640625 C 13.132812 -9.816406 12.984375 -9.0625 12.828125 -8.375 C 12.679688 -7.6875 12.066406 -4.894531 10.984375 0 L 5.015625 0 L 0.390625 -18.65625 L 5.265625 -18.65625 L 7.28125 -9.3125 C 7.75 -7.238281 8.066406 -5.585938 8.234375 -4.359375 C 8.347656 -5.234375 8.546875 -6.414062 8.828125 -7.90625 C 9.109375 -9.394531 9.375 -10.628906 9.625 -11.609375 L 11.265625 -18.65625 L 15.9375 -18.65625 L 17.53125 -11.609375 C 17.8125 -10.472656 18.085938 -9.164062 18.359375 -7.6875 C 18.640625 -6.207031 18.828125 -5.097656 18.921875 -4.359375 C 19.035156 -5.304688 19.335938 -6.945312 19.828125 -9.28125 L 21.90625 -18.65625 L 26.765625 -18.65625 Z M 22.171875 0 "/></g></g></g><g fill="#737373" fill-opacity="1"><g transform="translate(645.425095, 59.811127)"><g/></g></g><g fill="#737373" fill-opacity="1"><g transform="translate(652.213824, 59.811127)"><g><path d="M 10.328125 -14.796875 C 9.128906 -14.796875 8.191406 -14.300781 7.515625 -13.3125 C 6.847656 -12.332031 6.515625 -10.976562 6.515625 -9.25 C 6.515625 -5.664062 7.878906 -3.875 10.609375 -3.875 C 11.429688 -3.875 12.226562 -3.988281 13 -4.21875 C 13.78125 -4.445312 14.5625 -4.722656 15.34375 -5.046875 L 15.34375 -0.78125 C 13.78125 -0.09375 12.019531 0.25 10.0625 0.25 C 7.238281 0.25 5.078125 -0.5625 3.578125 -2.1875 C 2.078125 -3.820312 1.328125 -6.1875 1.328125 -9.28125 C 1.328125 -11.207031 1.691406 -12.898438 2.421875 -14.359375 C 3.148438 -15.828125 4.195312 -16.953125 5.5625 -17.734375 C 6.925781 -18.523438 8.53125 -18.921875 10.375 -18.921875 C 12.394531 -18.921875 14.320312 -18.484375 16.15625 -17.609375 L 14.609375 -13.640625 C 13.921875 -13.960938 13.234375 -14.234375 12.546875 -14.453125 C 11.859375 -14.679688 11.117188 -14.796875 10.328125 -14.796875 Z M 10.328125 -14.796875 "/></g></g></g><g fill="#737373" fill-opacity="1"><g transform="translate(669.172896, 59.811127)"><g><path d="M 13.46875 0 L 12.546875 -3.5 L 6.484375 -3.5 L 5.546875 0 L 0 0 L 6.09375 -18.734375 L 12.8125 -18.734375 L 18.984375 0 Z M 11.5 -7.640625 L 10.703125 -10.703125 C 10.515625 -11.378906 10.285156 -12.253906 10.015625 -13.328125 C 9.742188 -14.410156 9.566406 -15.1875 9.484375 -15.65625 C 9.410156 -15.226562 9.257812 -14.515625 9.03125 -13.515625 C 8.800781 -12.523438 8.300781 -10.566406 7.53125 -7.640625 Z M 11.5 -7.640625 "/></g></g></g><g fill="#737373" fill-opacity="1"><g transform="translate(688.148171, 59.811127)"><g><path d="M 19.78125 0 L 13.171875 0 L 6.359375 -13.140625 L 6.234375 -13.140625 C 6.398438 -11.078125 6.484375 -9.5 6.484375 -8.40625 L 6.484375 0 L 2.015625 0 L 2.015625 -18.65625 L 8.609375 -18.65625 L 15.390625 -5.6875 L 15.46875 -5.6875 C 15.351562 -7.570312 15.296875 -9.082031 15.296875 -10.21875 L 15.296875 -18.65625 L 19.78125 -18.65625 Z M 19.78125 0 "/></g></g></g><g fill="#737373" fill-opacity="1"><g transform="translate(709.954885, 59.811127)"><g/></g></g><g fill="#737373" fill-opacity="1"><g transform="translate(563.731445, 91.483055)"><g><path d="M 2.015625 0 L 2.015625 -18.65625 L 7.078125 -18.65625 L 7.078125 0 Z M 2.015625 0 "/></g></g></g><g fill="#737373" fill-opacity="1"><g transform="translate(572.829884, 91.483055)"><g/></g></g><g fill="#737373" fill-opacity="1"><g transform="translate(579.618613, 91.483055)"><g><path d="M 18.015625 0 L 12.9375 0 L 12.9375 -7.609375 L 7.078125 -7.609375 L 7.078125 0 L 2.015625 0 L 2.015625 -18.65625 L 7.078125 -18.65625 L 7.078125 -11.75 L 12.9375 -11.75 L 12.9375 -18.65625 L 18.015625 -18.65625 Z M 18.015625 0 "/></g></g></g><g fill="#737373" fill-opacity="1"><g transform="translate(599.64027, 91.483055)"><g><path d="M 13.09375 0 L 2.015625 0 L 2.015625 -18.65625 L 13.09375 -18.65625 L 13.09375 -14.609375 L 7.0625 -14.609375 L 7.0625 -11.671875 L 12.65625 -11.671875 L 12.65625 -7.640625 L 7.0625 -7.640625 L 7.0625 -4.109375 L 13.09375 -4.109375 Z M 13.09375 0 "/></g></g></g><g fill="#737373" fill-opacity="1"><g transform="translate(613.983374, 91.483055)"><g><path d="M 2.015625 0 L 2.015625 -18.65625 L 7.0625 -18.65625 L 7.0625 -4.078125 L 14.25 -4.078125 L 14.25 0 Z M 2.015625 0 "/></g></g></g><g fill="#737373" fill-opacity="1"><g transform="translate(629.19421, 91.483055)"><g><path d="M 15.5625 -12.71875 C 15.5625 -10.632812 14.945312 -9.023438 13.71875 -7.890625 C 12.488281 -6.753906 10.738281 -6.1875 8.46875 -6.1875 L 7.0625 -6.1875 L 7.0625 0 L 2.015625 0 L 2.015625 -18.65625 L 8.46875 -18.65625 C 10.832031 -18.65625 12.601562 -18.140625 13.78125 -17.109375 C 14.96875 -16.085938 15.5625 -14.625 15.5625 -12.71875 Z M 7.0625 -10.296875 L 7.984375 -10.296875 C 8.734375 -10.296875 9.332031 -10.507812 9.78125 -10.9375 C 10.226562 -11.363281 10.453125 -11.953125 10.453125 -12.703125 C 10.453125 -13.960938 9.753906 -14.59375 8.359375 -14.59375 L 7.0625 -14.59375 Z M 7.0625 -10.296875 "/></g></g></g><g fill="#737373" fill-opacity="1"><g transform="translate(645.706645, 91.483055)"><g/></g></g><g fill="#737373" fill-opacity="1"><g transform="translate(652.495373, 91.483055)"><g><path d="M 8.671875 -11.75 L 11.890625 -18.65625 L 17.359375 -18.65625 L 11.21875 -7.28125 L 11.21875 0 L 6.140625 0 L 6.140625 -7.140625 L 0 -18.65625 L 5.484375 -18.65625 Z M 8.671875 -11.75 "/></g></g></g><g fill="#737373" fill-opacity="1"><g transform="translate(669.850018, 91.483055)"><g><path d="M 19.484375 -9.359375 C 19.484375 -6.210938 18.710938 -3.820312 17.171875 -2.1875 C 15.628906 -0.5625 13.375 0.25 10.40625 0.25 C 7.476562 0.25 5.234375 -0.566406 3.671875 -2.203125 C 2.109375 -3.847656 1.328125 -6.238281 1.328125 -9.375 C 1.328125 -12.488281 2.101562 -14.863281 3.65625 -16.5 C 5.207031 -18.132812 7.460938 -18.953125 10.421875 -18.953125 C 13.390625 -18.953125 15.640625 -18.140625 17.171875 -16.515625 C 18.710938 -14.890625 19.484375 -12.503906 19.484375 -9.359375 Z M 6.640625 -9.359375 C 6.640625 -5.742188 7.894531 -3.9375 10.40625 -3.9375 C 11.675781 -3.9375 12.617188 -4.375 13.234375 -5.25 C 13.859375 -6.132812 14.171875 -7.503906 14.171875 -9.359375 C 14.171875 -11.222656 13.859375 -12.597656 13.234375 -13.484375 C 12.609375 -14.367188 11.671875 -14.8125 10.421875 -14.8125 C 7.898438 -14.8125 6.640625 -12.992188 6.640625 -9.359375 Z M 6.640625 -9.359375 "/></g></g></g><g fill="#737373" fill-opacity="1"><g transform="translate(690.675593, 91.483055)"><g><path d="M 17.875 -18.65625 L 17.875 -7.421875 C 17.875 -4.984375 17.179688 -3.09375 15.796875 -1.75 C 14.421875 -0.414062 12.429688 0.25 9.828125 0.25 C 7.285156 0.25 5.332031 -0.398438 3.96875 -1.703125 C 2.601562 -3.003906 1.921875 -4.875 1.921875 -7.3125 L 1.921875 -18.65625 L 6.984375 -18.65625 L 6.984375 -7.703125 C 6.984375 -6.390625 7.226562 -5.429688 7.71875 -4.828125 C 8.21875 -4.234375 8.945312 -3.9375 9.90625 -3.9375 C 10.9375 -3.9375 11.679688 -4.234375 12.140625 -4.828125 C 12.609375 -5.421875 12.84375 -6.390625 12.84375 -7.734375 L 12.84375 -18.65625 Z M 17.875 -18.65625 "/></g></g></g><g fill="#737373" fill-opacity="1"><g transform="translate(710.454784, 91.483055)"><g/></g></g><g fill="#737373" fill-opacity="1"><g transform="translate(717.243512, 91.483055)"><g><path d="M 3.765625 -6.59375 L 3.765625 -7.6875 C 3.765625 -8.519531 3.929688 -9.222656 4.265625 -9.796875 C 4.609375 -10.367188 5.21875 -10.925781 6.09375 -11.46875 C 6.78125 -11.90625 7.273438 -12.296875 7.578125 -12.640625 C 7.878906 -12.992188 8.03125 -13.394531 8.03125 -13.84375 C 8.03125 -14.207031 7.867188 -14.492188 7.546875 -14.703125 C 7.222656 -14.910156 6.800781 -15.015625 6.28125 -15.015625 C 5 -15.015625 3.5 -14.554688 1.78125 -13.640625 L 0 -17.109375 C 2.113281 -18.316406 4.328125 -18.921875 6.640625 -18.921875 C 8.535156 -18.921875 10.019531 -18.503906 11.09375 -17.671875 C 12.175781 -16.835938 12.71875 -15.703125 12.71875 -14.265625 C 12.71875 -13.234375 12.476562 -12.34375 12 -11.59375 C 11.519531 -10.84375 10.753906 -10.128906 9.703125 -9.453125 C 8.804688 -8.878906 8.242188 -8.457031 8.015625 -8.1875 C 7.796875 -7.914062 7.6875 -7.597656 7.6875 -7.234375 L 7.6875 -6.59375 Z M 3.21875 -2.125 C 3.21875 -2.90625 3.441406 -3.503906 3.890625 -3.921875 C 4.347656 -4.347656 5.019531 -4.5625 5.90625 -4.5625 C 6.757812 -4.5625 7.410156 -4.347656 7.859375 -3.921875 C 8.316406 -3.492188 8.546875 -2.894531 8.546875 -2.125 C 8.546875 -1.34375 8.3125 -0.738281 7.84375 -0.3125 C 7.375 0.101562 6.726562 0.3125 5.90625 0.3125 C 5.0625 0.3125 4.398438 0.101562 3.921875 -0.3125 C 3.453125 -0.726562 3.21875 -1.332031 3.21875 -2.125 Z M 3.21875 -2.125 "/></g></g></g></svg>